<svg class="icon" viewBox="0 0 1024 1024" version="1.1" xmlns="http://www.w3.org/2000/svg" width="160" height="160">
    <path d="M512 424.533333l57.6 130.133334h-115.2l57.6-130.133334z m36.266667-125.866666c-17.066667-29.866667-59.733333-29.866667-74.666667 0l-2.133333 4.266666-170.666667 384-2.133333 2.133334c-6.4 19.2 2.133333 42.666667 19.2 51.2l2.133333 2.133333 2.133333 2.133333c19.2 6.4 42.666667-2.133333 51.2-19.2l2.133334-2.133333 36.266666-83.2h189.866667l36.266667 83.2 2.133333 2.133333c10.666667 19.2 34.133333 27.733333 55.466667 19.2s29.866667-32 23.466666-53.333333l-2.133333-2.133333-170.666667-384 2.133334-6.4zM512 64c247.466667 0 448 200.533333 448 448s-200.533333 448-448 448S64 759.466667 64 512 264.533333 64 512 64z"></path>
</svg>