<svg t="1694612690486" class="icon" viewBox="0 0 1024 1024" version="1.1" xmlns="http://www.w3.org/2000/svg" p-id="3175" width="44" height="44"><path d="M303.231629 794.95419h72.483562v229.043138h-72.483562z" fill="#A4A9AD" p-id="3176"></path><path d="M303.231629 1000.804405h72.483562v23.195595h-72.483562z" fill="#2D3740" p-id="3177"></path><path d="M274.354717 655.676401c0-35.963861 29.154832-65.118693 65.118693-65.118693 35.966534 0 65.121365 29.154832 65.121365 65.118693v139.392698c0 35.969206-29.154832 65.118693-65.121365 65.118693-35.961189 0-65.118693-29.149487-65.118693-65.118693V655.676401z" fill="#C8C9C9" p-id="3178"></path><path d="M627.951251 794.95419h72.48089v229.043138h-72.48089z" fill="#A4A9AD" p-id="3179"></path><path d="M627.951251 1000.804405h72.48089v23.195595h-72.48089z" fill="#2D3740" p-id="3180"></path><path d="M599.074339 655.676401c0-35.963861 29.154832-65.118693 65.118693-65.118693 35.966534 0 65.121365 29.154832 65.121366 65.118693v139.392698c0 35.969206-29.154832 65.118693-65.121366 65.118693-35.963861 0-65.118693-29.149487-65.118693-65.118693V655.676401zM208.891297 794.95419h72.483561v229.043138H208.891297z" fill="#C8C9C9" p-id="3181"></path><path d="M208.891297 1000.804405h72.483561v23.195595H208.891297z" fill="#333E48" p-id="3182"></path><path d="M180.011712 655.676401c0-35.963861 29.157504-65.118693 65.121366-65.118693s65.118693 29.154832 65.118693 65.118693v139.392698c0 35.969206-29.154832 65.118693-65.118693 65.118693s-65.121365-29.149487-65.121366-65.118693V655.676401z" fill="#DADBDC" p-id="3183"></path><path d="M533.610919 794.95419h72.480889v229.043138h-72.480889z" fill="#C8C9C9" p-id="3184"></path><path d="M533.610919 1000.804405h72.480889v23.195595h-72.480889z" fill="#333E48" p-id="3185"></path><path d="M504.731334 655.676401c0-35.963861 29.157504-65.118693 65.121366-65.118693s65.118693 29.154832 65.118693 65.118693v139.392698c0 35.969206-29.154832 65.118693-65.118693 65.118693s-65.121365-29.149487-65.121366-65.118693V655.676401z" fill="#DADBDC" p-id="3186"></path><path d="M804.256479 41.9712h-71.596357c-53.953809 0-97.691401 43.737592-97.691402 97.694073l0.002673 0.112237v215.940833H245.114371a146.533093 146.533093 0 0 0-68.157102 16.795428c-9.665722-12.434228-24.732169-20.469845-41.701297-20.469845-29.181555 0-52.839458 23.655231-52.839458 52.842131 0 18.9787 10.042517 35.576377 25.074224 44.894699a146.415512 146.415512 0 0 0-10.234922 53.801488v73.929278c0 81.328886 66.537686 147.8639 147.8639 147.8639h418.538855c81.323542 0 147.8639-66.537686 147.863901-147.8639V237.054704c50.565328-3.719847 90.436097-45.883452 90.436097-97.389431-0.010689-53.956481-43.745609-97.694073-97.70209-97.694073z" fill="#DADBDC" p-id="3187"></path><path d="M927.447 141.180469h-22.949743v42.430836h35.271735V153.502461a12.321992 12.321992 0 0 0-12.321992-12.321992z" fill="#A4A9AD" p-id="3188"></path><path d="M901.819609 136.330238c-0.668076-19.700222-7.113672-37.928004-17.776163-53.002468h-122.215131c0 9.727185-5.299178 18.20106-13.158423 22.741303a26.161852 26.161852 0 0 1 1.560625 8.850669 26.177886 26.177886 0 0 1-7.851227 18.716814c27.669031 7.976826 47.909058 33.470602 47.909058 63.710389a66.005898 66.005898 0 0 1-14.008215 40.74194h113.717205c28.492101 0 51.586148-23.09672 51.586148-51.580803-0.002672-24.427527-16.979817-44.827892-39.763877-50.177844z" fill="#C8C9C9" p-id="3189"></path><path d="M852.996623 126.493489m-11.573747 0a11.573747 11.573747 0 1 0 23.147494 0 11.573747 11.573747 0 1 0-23.147494 0Z" fill="#333E48" p-id="3190"></path><path d="M738.77168 78.22367a19.550573 19.550573 0 0 1-27.636964 0 19.550573 19.550573 0 0 1 0-27.642308L761.721423 0c15.261526 15.261526 15.264198 40.007057 0.002672 55.268582l-22.952415 22.955088z" fill="#C8C9C9" p-id="3191"></path></svg>