<svg  class="icon" viewBox="0 0 1024 1024" version="1.1" xmlns="http://www.w3.org/2000/svg" width="64" height="64"><path d="M576 128a1266.56 1266.56 0 0 0 384 211.2c-71.68 222.72-188.16 394.88-414.72 376.96a387.84 387.84 0 0 0 50.56-128l89.6 48a110.72 110.72 0 0 0-74.88-144.64 950.4 950.4 0 0 0 0-128l48 8.96a67.84 67.84 0 0 0-63.36-88.96V262.4l-12.16-60.16-59.52 12.16L512 217.6c17.92-25.6 38.4-57.6 64-89.6zM83.2 281.6C37.12 524.8 64 741.76 300.16 832c235.52-87.68 262.4-304.64 217.6-545.28a1176.96 1176.96 0 0 1-435.84-3.2zM192 615.04h227.2c0 126.72-227.2 126.72-227.2 0zM256 480a142.08 142.08 0 0 1-116.48-26.88c44.16-96.64 124.8-33.92 116.48 26.88z m92.8 0c-3.84-57.6 79.36-123.52 118.4-27.52a148.48 148.48 0 0 1-116.48 27.52z m367.36-72.32a145.28 145.28 0 0 0 101.76 64c40.32-94.72-61.44-106.24-99.84-64z" ></path></svg>