<!--<svg class="icon" viewBox="0 0 1024 1024" version="1.1" xmlns="http://www.w3.org/2000/svg" width="160" height="160">-->
<!--    <path d="M64 32m160 0l64 0q160 0 160 160l0 640q0 160-160 160l-64 0q-160 0-160-160l0-640q0-160 160-160Z"-->
<!--          fill="#364F6B"></path>-->
<!--    <path d="M576 32m160 0l64 0q160 0 160 160l0 640q0 160-160 160l-64 0q-160 0-160-160l0-640q0-160 160-160Z"-->
<!--          fill="#364F6B"></path>-->
<!--</svg>-->

<svg  class="icon" viewBox="0 0 1024 1024" version="1.1" xmlns="http://www.w3.org/2000/svg"
     width="64" height="64">
    <path d="M682.666667 768H341.333333a85.333333 85.333333 0 0 1-85.333333-85.333333V341.333333a85.333333 85.333333 0 0 1 85.333333-85.333333h341.333334a85.333333 85.333333 0 0 1 85.333333 85.333333v341.333334a85.333333 85.333333 0 0 1-85.333333 85.333333z"
         ></path>
</svg>