<svg  class="icon" viewBox="0 0 1024 1024" version="1.1" xmlns="http://www.w3.org/2000/svg" width="160" height="160"><path d="M512.512 96c31.317333 0.384 62.506667 3.968 93.098667 10.794667a32 32 0 0 1 24.832 27.690666l7.253333 65.152a59.050667 59.050667 0 0 0 82.218667 47.616l59.733333-26.24a32 32 0 0 1 36.266667 7.424 417.834667 417.834667 0 0 1 94.08 161.792 32 32 0 0 1-11.605334 35.242667l-52.949333 39.04a58.88 58.88 0 0 0 0 94.976l53.034667 39.04a32 32 0 0 1 11.605333 35.242667 418.090667 418.090667 0 0 1-94.037333 161.792 32 32 0 0 1-36.224 7.466666l-59.989334-26.282666a58.922667 58.922667 0 0 0-82.176 47.488l-7.253333 65.109333a32 32 0 0 1-24.362667 27.648 406.101333 406.101333 0 0 1-187.989333 0 32 32 0 0 1-24.405333-27.648l-7.210667-65.024a58.965333 58.965333 0 0 0-82.133333-47.36l-59.989334 26.282667a32 32 0 0 1-36.266666-7.466667 418.048 418.048 0 0 1-93.994667-161.962667 32 32 0 0 1 11.605333-35.242666l53.034667-39.082667a58.88 58.88 0 0 0 0-94.976l-53.034667-38.997333a32 32 0 0 1-11.605333-35.242667 417.834667 417.834667 0 0 1 94.08-161.792 32 32 0 0 1 36.266667-7.424l59.733333 26.24a59.178667 59.178667 0 0 0 82.346667-47.701333l7.253333-65.109334a32 32 0 0 1 24.874667-27.690666c30.592-6.826667 61.824-10.410667 93.909333-10.794667z m0 64a389.845333 389.845333 0 0 0-57.770667 4.992l-4.693333 41.685333A123.136 123.136 0 0 1 278.442667 305.92l-38.357334-16.810667A353.834667 353.834667 0 0 0 182.613333 387.925333l34.005334 25.045334a122.88 122.88 0 0 1 0.042666 198.101333l-34.090666 25.088c13.653333 35.925333 33.109333 69.376 57.514666 99.072l38.613334-16.938667a122.965333 122.965333 0 0 1 171.392 98.901334l4.650666 41.984c37.973333 6.4 76.757333 6.4 114.688 0l4.693334-41.984a122.922667 122.922667 0 0 1 171.434666-99.072l38.570667 16.896a354.133333 354.133333 0 0 0 57.514667-98.901334l-34.048-25.088a122.88 122.88 0 0 1-0.042667-198.058666l34.005333-25.088a353.834667 353.834667 0 0 0-57.514666-98.858667l-38.272 16.768a123.050667 123.050667 0 0 1-171.648-99.157333l-4.650667-41.642667a383.573333 383.573333 0 0 0-56.917333-4.992zM512 352a160 160 0 1 1 0 320 160 160 0 0 1 0-320z m0 64a96 96 0 1 0 0 192 96 96 0 0 0 0-192z" fill="#212121"></path></svg>